:version 1.10
:name ASF
:units
  mass 1
  length 1
  angle deg
:documentation
  ASF file generated by Kaydara
:root
  axis xyz
  order  tx ty tz rx ry rz
  position 0 0 0
  orientation 0 0 0
:bonedata
  begin
    id 1
    name RightUpLegDummy
    direction -0.718183 -0.695806 0.00816078
    length 4.904
    axis 0 0 0 xyz
  end
  begin
    id 2
    name RightUpLeg
    direction 3.53989e-006 -0.995788 0.0916897
    length 17.4976
    axis -3.49089 -0.000906621 0.000287158 xyz
    dof rx ry rz
  end
  begin
    id 3
    name RightLeg
    direction 0.00371093 -0.995096 -0.0988418
    length 16.5821
    axis 3.68512 0.0193738 -0.131023 xyz
    dof rx ry rz
  end
  begin
    id 4
    name RightFoot
    direction 0.000791514 -0.46099 0.887405
    length 3.77069
    axis 4.84075e-005 -0.120479 -0.188788 xyz
    dof rx ry rz
  end
  begin
    id 5
    name RightToes
    direction 0.00124746 -0.014064 0.9999
    length 3.85082
    axis 0.00048216 0.542163 -0.142577 xyz
    dof rx ry rz
  end
  begin
    id 6
    name SpineDummy
    direction 8.3039e-015 1 4.57515e-016
    length 4.6813
    axis 0 0 0 xyz
  end
  begin
    id 7
    name Spine
    direction -4.63632e-008 0.999988 0.00495137
    length 10.1015
    axis -0.00138897 0.000121419 3.25764e-006 xyz
    dof rx ry rz
  end
  begin
    id 8
    name Spine1
    direction 0 0 0
    length 0
    axis -0.00138896 0.000121452 2.39764e-006 xyz
    dof rx ry rz
  end
  begin
    id 9
    name HEadDummy
    direction -3.91456e-008 0.999999 0.00127422
    length 3.43865
    axis -0.00138896 0.000121452 2.39764e-006 xyz
  end
  begin
    id 10
    name HEad
    direction -0.0222688 0.980941 0.193023
    length 5.12695
    axis -0.00138895 0.000121452 2.39764e-006 xyz
    dof rx ry rz
  end
  begin
    id 11
    name LeftShoulder1Dummy
    direction 0.998891 -0.0402508 -0.0244456
    length 3.5433
    axis -0.00138896 0.000121452 2.39764e-006 xyz
  end
  begin
    id 12
    name LeftShoulder1
    direction 0.99951 -0.000327743 0.0313091
    length 4.05031
    axis -0.00138896 0.000121452 2.39764e-006 xyz
    dof rx ry rz
  end
  begin
    id 13
    name LeftArm
    direction 0.998561 -0.00100054 -0.0536182
    length 10.3537
    axis -23.1894 0.134784 0.96751 xyz
    dof rx ry rz
  end
  begin
    id 14
    name LeftForeArm
    direction 0.998903 0.00866434 0.046012
    length 8.70632
    axis -9.91835 -0.06569 -0.177792 xyz
    dof rx ry rz
  end
  begin
    id 15
    name LeftHand
    direction 0.992938 -0.0411636 0.11126
    length 5.32135
    axis -0.00960227 -0.00340091 0.185174 xyz
    dof rx ry rz
  end
  begin
    id 16
    name RightShoulderDummy
    direction -0.998891 -0.0402509 -0.0244414
    length 3.5433
    axis -0.00138896 0.000121452 2.39764e-006 xyz
  end
  begin
    id 17
    name RightShoulder
    direction -0.99951 -0.000327827 0.0313133
    length 4.05031
    axis 0.215806 0.000203644 -0.00680151 xyz
    dof rx ry rz
  end
  begin
    id 18
    name RightArm
    direction -0.998573 -0.000999583 -0.053403
    length 10.3947
    axis -23.2009 -0.134239 -0.9641 xyz
    dof rx ry rz
  end
  begin
    id 19
    name RightForeArm
    direction -0.998898 0.00868026 0.0461306
    length 8.68355
    axis -9.92322 0.0658061 0.178869 xyz
    dof rx ry rz
  end
  begin
    id 20
    name RightHand
    direction -0.992843 -0.0414603 0.112003
    length 5.28593
    axis -0.00960634 0.00330671 -0.185226 xyz
    dof rx ry rz
  end
  begin
    id 21
    name LeftUpLegDummy
    direction 0.718183 -0.695806 0.00816078
    length 4.904
    axis 0 0 0 xyz
  end
  begin
    id 22
    name LeftUpLeg
    direction -6.8115e-006 -0.995793 0.0916336
    length 17.4976
    axis -3.48766 0.00143441 -0.000523914 xyz
    dof rx ry rz
  end
  begin
    id 23
    name LeftLeg
    direction -0.00601357 -0.995091 -0.0987824
    length 16.5821
    axis 3.68177 -0.00654038 -0.00028478 xyz
    dof rx ry rz
  end
  begin
    id 24
    name LeftFoot
    direction -0.00417578 -0.460984 0.887399
    length 3.77069
    axis 1.87232e-006 4.66002e-005 -8.1837e-006 xyz
    dof rx ry rz
  end
  begin
    id 25
    name LeftToes
    direction 0.00818058 -0.00485161 0.999955
    length 3.85048
    axis 1.06246e-005 4.65855e-005 -8.18502e-006 xyz
    dof rx ry rz
  end
:hierarchy
  begin
    root RightUpLegDummy SpineDummy LeftUpLegDummy
    RightUpLegDummy RightUpLeg
    RightUpLeg RightLeg
    RightLeg RightFoot
    RightFoot RightToes
    SpineDummy Spine
    Spine Spine1
    Spine1 HEadDummy LeftShoulder1Dummy RightShoulderDummy
    HEadDummy HEad
    LeftShoulder1Dummy LeftShoulder1
    LeftShoulder1 LeftArm
    LeftArm LeftForeArm
    LeftForeArm LeftHand
    RightShoulderDummy RightShoulder
    RightShoulder RightArm
    RightArm RightForeArm
    RightForeArm RightHand
    LeftUpLegDummy LeftUpLeg
    LeftUpLeg LeftLeg
    LeftLeg LeftFoot
    LeftFoot LeftToes
  end

:SAMPLES-PER-SECOND 30
:FRAME-RANGE 1-1390
:FULLY-SPECIFIED
:DEGREES
1
root  85.5754 39.8968 -80.371 -177.441 -50.1366 178.249
RightUpLeg  -6.00032 3.33281 0.551033
RightLeg  14.8996 14.114 3.10559
RightFoot  -8.97447 0.026489 -3.88899
RightToes  6.35937e-011 1.2921e-014 -6.02303e-014
Spine  -7.40935 -4.61499 0.154162
Spine1  10.1615 -5.25371 1.29959
HEad  -0.368823 -19.4773 -0.809817
LeftShoulder1  1.86682 -3.00607 -23.5884
LeftArm  -1.19064 -0.0102712 -49.0901
LeftForeArm  41.0865 5.41996 -13.1339
LeftHand  -0.031351 5.30109 1.50688
RightShoulder  1.14963 0.189241 26.8052
RightArm  -26.2958 3.82303 48.1329
RightForeArm  75.2325 -4.94767 2.6315
RightHand  0.312883 -8.94513 -11.2042
LeftUpLeg  -7.34595 0.808775 1.68567
LeftLeg  15.3294 16.9647 5.94885
LeftFoot  -13.2323 0.0395941 -2.40789
LeftToes  4.52251e-011 4.07896e-011 -5.42348e-012
2
root  85.609 39.9072 -80.4298 -177.146 -50.3835 178.144
RightUpLeg  -6.05447 2.88634 0.534901
RightLeg  14.6315 14.3676 3.11088
RightFoot  -8.9784 0.0160923 -3.72679
RightToes  6.35937e-011 1.2921e-014 -6.02303e-014
Spine  -7.3575 -4.93662 -0.502967
Spine1  10.1104 -5.66004 1.70316
HEad  -0.063822 -16.2145 -1.17525
LeftShoulder1  1.86032 -3.01799 -23.4212
LeftArm  -0.878726 -0.765284 -49.5021
LeftForeArm  40.738 5.08476 -13.2213
LeftHand  -0.0309892 5.31161 1.5775
RightShoulder  1.08158 -0.0368168 26.9897
RightArm  -26.8561 2.53033 47.5777
RightForeArm  75.2264 -4.90828 2.39524
RightHand  0.28456 -8.66093 -11.1466
LeftUpLeg  -7.45123 0.922892 1.71488
LeftLeg  14.9738 16.6605 5.81005
LeftFoot  -12.8728 0.0415655 -2.66405
LeftToes  4.52251e-011 4.07896e-011 -5.42348e-012
3
root  85.6526 39.9035 -80.4714 -176.729 -50.9536 177.933
RightUpLeg  -6.25762 2.35925 0.415398
RightLeg  14.5864 14.348 3.1643
RightFoot  -9.15237 0.00433514 -3.54342
RightToes  6.35937e-011 1.2921e-014 -6.02303e-014
Spine  -7.17997 -5.22907 -1.02796
Spine1  9.93186 -5.99641 1.97216
HEad  0.193678 -11.157 -1.58351
LeftShoulder1  1.94121 -3.32987 -23.2497
LeftArm  -1.03285 -1.2753 -50.0471
LeftForeArm  40.8269 4.64187 -13.1301
LeftHand  -0.0298406 5.39201 1.87485
RightShoulder  1.01421 -0.267807 27.281
RightArm  -27.5541 1.15242 46.9744
RightForeArm  74.6464 -4.88103 2.09146
RightHand  0.207699 -8.25806 -9.65156
LeftUpLeg  -7.81775 0.827283 1.67123
LeftLeg  14.8017 16.2432 5.66436
LeftFoot  -12.1987 0.0554001 -2.37201
LeftToes  4.52251e-011 4.07896e-011 -5.42348e-012
4
root  85.6903 39.893 -80.5098 -176.386 -51.9367 177.796
RightUpLeg  -6.39213 1.77135 0.372447
RightLeg  14.5254 13.9272 3.11481
RightFoot  -9.38208 -0.00539345 -3.39173
RightToes  6.35937e-011 1.2921e-014 -6.02303e-014
Spine  -7.0054 -5.43126 -1.23791
Spine1  9.82722 -6.21776 2.06792
HEad  0.444665 -5.05431 -1.63079
LeftShoulder1  1.96296 -3.44891 -23.0456
LeftArm  -1.21137 -2.27544 -50.7395
LeftForeArm  41.4296 4.38654 -13.0095
LeftHand  -0.0254688 5.01233 1.73291
RightShoulder  0.959336 -0.449423 27.4741
RightArm  -25.4226 0.468151 46.0441
RightForeArm  72.5913 -5.19134 3.44707
RightHand  0.353319 -8.93114 -12.4926
LeftUpLeg  -8.26021 0.457843 1.69095
LeftLeg  14.6627 15.6083 5.49824
LeftFoot  -11.2036 0.0701691 -2.47783
LeftToes  4.52251e-011 4.07896e-011 -5.42348e-012
5
root  85.7088 39.8713 -80.5359 -176.007 -53.1233 177.574
RightUpLeg  -6.60737 1.4408 0.277946
RightLeg  14.7528 13.1189 3.02756
RightFoot  -9.76817 -0.0219771 -3.20747
RightToes  6.35937e-011 1.2921e-014 -6.02303e-014
Spine  -6.74724 -5.47935 -1.3032
Spine1  9.71036 -6.30275 2.25438
HEad  0.259582 -0.0510038 -1.85019
LeftShoulder1  1.91333 -3.27022 -23.0818
LeftArm  -1.18245 -3.46911 -51.6738
LeftForeArm  41.2498 3.9121 -12.9485
LeftHand  -0.0282864 5.30501 1.90522
RightShoulder  0.964388 -0.436823 27.5052
RightArm  -26.0349 -1.48804 45.4956
RightForeArm  72.2714 -5.16264 3.19817
RightHand  0.283458 -8.34117 -12.202
LeftUpLeg  -8.73607 0.328006 1.70636
LeftLeg  14.5629 14.6318 5.16542
LeftFoot  -10.0105 0.0902421 -2.59965
LeftToes  4.52251e-011 4.07896e-011 -5.42348e-012
6
root  85.7241 39.8383 -80.5583 -175.664 -54.4585 177.494
RightUpLeg  -6.91199 1.17729 0.29908
RightLeg  15.0083 12.1114 2.90091
RightFoot  -10.1566 -0.0366344 -3.09616
RightToes  6.35937e-011 1.2921e-014 -6.02303e-014
Spine  -6.56103 -5.38712 -1.02279
Spine1  9.62895 -6.20209 2.1856
HEad  -0.200911 4.78287 -2.69317
LeftShoulder1  2.02293 -3.68312 -22.9241
LeftArm  -1.18661 -4.1877 -52.5469
LeftForeArm  40.7558 3.09387 -12.8983
LeftHand  -0.0311254 5.08458 2.13198
RightShoulder  0.974088 -0.413347 27.5728
RightArm  -26.2703 -3.37416 45.1724
RightForeArm  72.4388 -5.1497 3.16072
RightHand  0.392319 -9.22481 -12.7244
LeftUpLeg  -9.38733 0.351789 1.83923
LeftLeg  14.6876 13.4762 4.79029
LeftFoot  -9.46623 0.0978411 -2.50817
LeftToes  4.52251e-011 4.07896e-011 -5.42348e-012
7
root  85.7094 39.8368 -80.5858 -175.363 -55.9279 177.257
RightUpLeg  -6.89249 0.817231 0.278942
RightLeg  15.0697 11.0143 2.64221
RightFoot  -10.2902 -0.0398387 -3.23826
RightToes  6.35937e-011 1.2921e-014 -6.02303e-014
Spine  -6.4071 -5.23147 -0.708447
Spine1  9.69548 -6.0162 2.02636
HEad  -0.504604 8.61184 -3.42141
LeftShoulder1  1.97629 -3.47593 -23.1313
LeftArm  -0.659156 -5.22932 -53.3667
LeftForeArm  40.55 2.27411 -12.989
LeftHand  -0.032455 4.994 2.18746
RightShoulder  1.02155 -0.274763 27.6134
RightArm  -26.9431 -5.14872 44.9486
RightForeArm  72.7352 -5.08568 2.84892
RightHand  0.399713 -9.3144 -12.6627
LeftUpLeg  -9.67501 0.081724 1.77569
LeftLeg  14.6267 12.9997 4.64522
LeftFoot  -8.8518 0.108131 -2.53182
LeftToes  4.52251e-011 4.07896e-011 -5.42348e-012
8
root  85.665 39.8426 -80.6348 -174.955 -56.9825 176.861
RightUpLeg  -6.75655 0.543005 0.1435
RightLeg  15.015 10.2719 2.44489
RightFoot  -10.4636 -0.046057 -3.21922
RightToes  6.35937e-011 1.2921e-014 -6.02303e-014
Spine  -6.62474 -4.85269 -0.388989
Spine1  10.2312 -5.53934 1.589
HEad  -0.773741 11.765 -4.03796
LeftShoulder1  1.98705 -3.52442 -23.0792
LeftArm  -0.302533 -5.8352 -54.2269
LeftForeArm  40.711 1.37965 -13.0038
LeftHand  -0.0424154 4.41253 2.4545
RightShoulder  1.04188 -0.220192 27.6837
RightArm  -27.6962 -6.24338 44.9598
RightForeArm  73.0653 -5.00631 2.45461
RightHand  0.37737 -9.20514 -12.3563
LeftUpLeg  -9.61033 0.406132 1.62031
LeftLeg  14.2291 12.4188 4.39848
LeftFoot  -8.79998 0.104407 -2.32604
LeftToes  4.52251e-011 4.07896e-011 -5.42348e-012
